<svg xmlns="http://www.w3.org/2000/svg" version="1.1" xmlns:xlink="http://www.w3.org/1999/xlink" xmlns:svgjs="http://svgjs.dev/svgjs" width="2000" height="2000" viewBox="0 0 2000 2000"><g transform="matrix(1,0,0,1,-0.28443113772425477,-0.28443113772459583)"><svg viewBox="0 0 334 334" data-background-color="#f9f9f9" preserveAspectRatio="xMidYMid meet" height="2000" width="2000" xmlns="http://www.w3.org/2000/svg" xmlns:xlink="http://www.w3.org/1999/xlink"><g id="tight-bounds" transform="matrix(1,0,0,1,0.04749999999998522,0.04750000000001364)"><svg viewBox="0 0 333.90454557049503 333.90454557049503" height="333.90454557049503" width="333.90454557049503"><g><svg></svg></g><g><svg viewBox="0 0 333.90454557049503 333.90454557049503" height="333.90454557049503" width="333.90454557049503"><g><path d="M0 166.952c0-92.205 74.747-166.952 166.952-166.952 92.205 0 166.952 74.747 166.953 166.952 0 92.205-74.747 166.952-166.953 166.953-92.205 0-166.952-74.747-166.952-166.953zM166.952 316.63c82.665 0 149.677-67.013 149.678-149.678 0-82.665-67.013-149.677-149.678-149.677-82.665 0-149.677 67.013-149.677 149.677 0 82.665 67.013 149.677 149.677 149.678z" data-fill-palette-color="tertiary" fill="#3d9970" stroke="transparent"></path><ellipse rx="160.27418187383762" ry="160.27418187383762" cx="166.95227278524752" cy="166.95227278524752" fill="#3d9970" stroke="transparent" stroke-width="0" fill-opacity="1" data-fill-palette-color="tertiary"></ellipse></g><g transform="matrix(1,0,0,1,138.70012788691287,71.17305217166896)"><svg viewBox="0 0 56.50428979666932 191.55844122715712" height="191.55844122715712" width="56.50428979666932"><g><svg viewBox="0 0 56.50428979666932 191.55844122715712" height="191.55844122715712" width="56.50428979666932"><g><svg viewBox="0 0 56.50428979666932 191.55844122715712" height="191.55844122715712" width="56.50428979666932"><g><svg viewBox="0 0 56.50428979666932 191.55844122715712" height="191.55844122715712" width="56.50428979666932"><g id="textblocktransform"><svg viewBox="0 0 56.50428979666932 191.55844122715712" height="191.55844122715712" width="56.50428979666932" id="textblock"><g><svg viewBox="0 0 56.50428979666932 191.55844122715712" height="191.55844122715712" width="56.50428979666932"><g transform="matrix(1,0,0,1,0,0)"><svg width="56.50428979666932" viewBox="-4.1888671875 -36.214705878406996 16.038867187499996 54.374705726307" height="191.55844122715712" data-palette-color="#f9f9f9"><path d="M8.6-28.9L8.6-28.9Q8.35-28.9 7.8-29 7.25-29.1 7.25-29.45L7.25-29.45Q7.25-29.65 7.7-29.88 8.15-30.1 8.72-30.5 9.3-30.9 9.75-31.58 10.2-32.25 10.2-33.3L10.2-33.3Q10.2-34.7 9.7-35.3L9.7-35.3Q9.6-35.45 9.45-35.6 9.3-35.75 9.35-35.85L9.35-35.85Q9.45-35.85 9.58-35.8 9.7-35.75 9.8-35.7L9.8-35.7Q10.8-35.15 11.33-34.25 11.85-33.35 11.85-32.55L11.85-32.55Q11.85-30.95 11.08-29.93 10.3-28.9 8.6-28.9ZM6.75-30.9L6.75-30.9Q6.5-30.85 6.33-30.9 6.15-30.95 6.15-31.25L6.15-31.25Q6.15-31.65 6.45-32.02 6.75-32.4 7.03-32.85 7.3-33.3 7.4-33.88 7.5-34.45 7.1-35.3L7.1-35.3Q7-35.5 6.75-35.8 6.5-36.1 6.6-36.2L6.6-36.2Q6.7-36.25 7.03-36.13 7.35-36 7.45-35.9L7.45-35.9Q8.3-35.5 8.72-34.75 9.15-34 9.15-33.3L9.15-33.3Q9.15-32.35 8.38-31.75 7.6-31.15 6.75-30.9ZM5.3-33.65L5.3-33.65Q5.3-33.85 5.48-34.2 5.65-34.55 5.95-34.55L5.95-34.55Q6.2-34.55 6.35-34.2 6.5-33.85 6.5-33.65L6.5-33.65Q6.5-33.45 6.35-33.1 6.2-32.75 5.95-32.75L5.95-32.75Q5.65-32.75 5.48-33.1 5.3-33.45 5.3-33.65ZM8.35-17L8.35-17Q8.25-17.7 8.03-19 7.8-20.3 7.35-21.35L7.35-21.35Q7.25-21.6 7.05-21.95 6.85-22.3 6.75-22.25L6.75-22.25Q6.65-22.2 6.65-21.9 6.65-21.6 6.75-20.85L6.75-20.85Q6.95-19.65 6.93-17.93 6.9-16.2 6.68-14.15 6.45-12.1 5.95-9.8 5.45-7.5 4.7-5.2L4.7-5.2Q4.5-4.6 4.15-3.78 3.8-2.95 3.4-2.02 3-1.1 2.63-0.18 2.25 0.75 2.05 1.55L2.05 1.55Q1.85 2.8 2.6 1.8L2.6 1.8Q3.95 0.3 5.1-1.9 6.25-4.1 7.08-6.6 7.9-9.1 8.25-11.8 8.6-14.5 8.35-17ZM9.75-16L9.75-16Q9.65-16.35 9.6-16.43 9.55-16.5 9.45-16.5L9.45-16.5Q9.35-16.5 9.35-16.1L9.35-16.1Q9.35-12.65 8.7-9.5 8.05-6.35 6.9-3.35L6.9-3.35Q6.7-2.8 6.1-1.45 5.5-0.1 4.67 1.63 3.85 3.35 2.95 5.23 2.05 7.1 1.3 8.7 0.55 10.3 0.08 11.4-0.4 12.5-0.4 12.6L-0.4 12.6Q-0.4 12.8-0.3 12.78-0.2 12.75-0.1 12.65 0 12.55 0.1 12.4 0.2 12.25 0.25 12.2L0.25 12.2Q2 10.1 3.9 6.9 5.8 3.7 7.28 0.08 8.75-3.55 9.6-7.28 10.45-11 10.1-14.1L10.1-14.1Q10-15.1 9.75-16ZM-0.8-0.25L-0.8-0.25Q-1.5 1.55-2.2 3.28-2.9 5-3.4 6.83-3.9 8.65-4.1 10.65-4.3 12.65-4.05 14.95L-4.05 14.95Q-4.05 15.2-3.98 15.55-3.9 15.9-3.83 16.25-3.75 16.6-3.65 16.88-3.55 17.15-3.5 17.2L-3.5 17.2Q-3.4 17.2-3.4 16.75L-3.4 16.75Q-3.35 14.4-3.05 12.3-2.75 10.2-2.23 8.25-1.7 6.3-0.98 4.42-0.25 2.55 0.6 0.6L0.6 0.6Q1.6-1.5 2.7-3.98 3.8-6.45 4.65-9.13 5.5-11.8 5.95-14.6 6.4-17.4 6.1-20.25L6.1-20.25Q6-20.8 5.88-21.53 5.75-22.25 5.5-23L5.5-23Q5.25-23.8 5.1-23.8L5.1-23.8Q5-23.8 5.05-23L5.05-23Q5.35-20 4.8-16.95 4.25-13.9 3.3-10.95 2.35-8 1.23-5.28 0.1-2.55-0.8-0.25ZM-0.2 7.65L-0.2 7.65Q-0.2 7.5-0.35 7.45L-0.35 7.45Q-0.7 7.4-1.1 8.15-1.5 8.9-1.88 10.05-2.25 11.2-2.48 12.6-2.7 14-2.7 15.25L-2.7 15.25Q-2.7 15.65-2.58 16.38-2.45 17.1-2.35 17.5L-2.35 17.5Q-2.35 17.6-2.27 17.88-2.2 18.15-2.1 18.15L-2.1 18.15Q-1.95 18.2-1.93 18-1.9 17.8-1.9 17.7L-1.9 17.7Q-1.8 16.55-1.7 15.48-1.6 14.4-1.35 13.35L-1.35 13.35Q-1.25 12.95-1.05 12.13-0.85 11.3-0.65 10.43-0.45 9.55-0.3 8.78-0.15 8-0.2 7.65Z" opacity="1" transform="matrix(1,0,0,1,0,0)" fill="#f9f9f9" class="wordmark-text-0" data-fill-palette-color="quaternary" id="text-0"></path></svg></g></svg></g></svg></g></svg></g><g></g></svg></g></svg></g></svg></g></svg></g><defs></defs></svg><rect width="333.90454557049503" height="333.90454557049503" fill="none" stroke="none" visibility="hidden"></rect></g></svg></g></svg>