<?xml version="1.0" standalone="no"?><!DOCTYPE svg PUBLIC "-//W3C//DTD SVG 1.1//EN" "http://www.w3.org/Graphics/SVG/1.1/DTD/svg11.dtd"><svg t="1718783514017" class="icon" viewBox="0 0 1024 1024" version="1.1" xmlns="http://www.w3.org/2000/svg" p-id="8410" xmlns:xlink="http://www.w3.org/1999/xlink" width="200" height="200"><path d="M682.666667 810.666667v-85.333334a42.666667 42.666667 0 0 1 85.333333 0v128a42.666667 42.666667 0 0 1-42.666667 42.666667H170.666667a42.666667 42.666667 0 0 1-42.666667-42.666667V298.666667a42.666667 42.666667 0 0 1 42.666667-42.666667h128a42.666667 42.666667 0 1 1 0 85.333333H213.333333v469.333334h469.333334z m213.333333-298.666667a42.666667 42.666667 0 0 1-85.333333 0V362.666667a42.666667 42.666667 0 0 1 85.333333 0V512z m-145.664-298.666667H512a42.666667 42.666667 0 0 1 0-85.333333h341.333333c37.973333 0 57.045333 45.952 30.165334 72.832l-384 384a42.666667 42.666667 0 0 1-60.330667-60.330667L750.336 213.333333z" p-id="8411" fill="#915eff"></path></svg>