<svg xmlns="http://www.w3.org/2000/svg" version="1.1" xmlns:xlink="http://www.w3.org/1999/xlink" xmlns:svgjs="http://svgjs.dev/svgjs" width="2000" height="1176" viewBox="0 0 2000 1176"><g transform="matrix(1,0,0,1,-1.2112696095522324,-2.0667520499772536)"><svg viewBox="0 0 396 233" data-background-color="#edffde" preserveAspectRatio="xMidYMid meet" height="1176" width="2000" xmlns="http://www.w3.org/2000/svg" xmlns:xlink="http://www.w3.org/1999/xlink"><g id="tight-bounds" transform="matrix(1,0,0,1,0.24008861730862918,0.40951991325756865)"><svg viewBox="0 0 395.52 232.1809960496296" height="232.1809960496296" width="395.52"><g><svg viewBox="0 0 395.52 232.1809960496296" height="232.1809960496296" width="395.52"><g><svg viewBox="0 0 395.52 232.1809960496296" height="232.1809960496296" width="395.52"><g id="textblocktransform"><svg viewBox="0 0 395.52 232.1809960496296" height="232.1809960496296" width="395.52" id="textblock"><g><svg viewBox="0 0 395.52 232.1809960496296" height="232.1809960496296" width="395.52"><path d="M394.594 49.798C392.735 25.698 387.435 18.998 387.435 18.998 371.165-5.825 350.86-0.475 332.619 3.092 300.414 3.237 268.339 8.539 236.208 11.382 168.767 11.816 100.749 4.683 33.643 22.276 27.339 27.674-6.54 23.336 1.121 52.883 3.129 65.174 10.456 78.815 10.232 90.094 11.236 92.07 12.631 87.539 13.226 90.383 15.309 98.047 18.711 94.432 21.501 98.963 17.614 111.061 20.403 121.135 23.062 131.691 18.377 134.439 12.371 133.137 9.675 142.247 9.396 148.851 7.89 147.597 6.235 147.308 5.026 147.115 2.59 147.838 2.999 149.911 4.394 156.997-1.594 161.094 2.162 168.034-0.422 175.554 3.948 182.061 3.353 190.207 3.278 191.846 3.687 193.243 4.338 193.629 7.22 195.702 3.018 199.75 3.464 204.137 33.029 234.118 65.104 213.391 95.394 227.177 103.259 217.537 97.346 230.599 100.489 228.574 102.943 226.213 104.728 235.997 107.499 230.454 107.927 228.864 107.276 225.104 108.8 225.827 109.6 226.213 110.307 226.116 110.418 223.899 110.586 220.573 109.117 222.646 108.726 220.911 112.947 212.138 111.906 233.009 115.866 232.141 115.68 229.587 114.528 225.923 116.889 226.405 119.232 222.742 119.306 219.706 121.389 227.948 121.463 229.731 121.835 230.984 122.43 231.852 128.938 222.887 135.409 235.033 142.233 230.984 146.417 226.55 150.433 233.395 154.672 231.707 156.16 230.358 157.666 227.948 159.098 231.997 176.632 232.864 195.319 229.249 211.943 232.141 256.364 226.743 303.836 234.359 350.674 227.225 361.719 224.477 373.192 220.573 383.958 217.44 383.958 217.44 392.679 208.86 392.679 170.3S394.538 136.559 394.817 105.856C395.096 75.152 396.398 73.899 394.538 49.798Z" opacity="1" fill="#3d9970" data-fill-palette-color="tertiary"></path><g transform="matrix(1,0,0,1,55.76832,26.230666666666668)"><svg width="283.98335999999995" viewBox="-4.1888671875 -38.311363635498 89.219512328709 56.471363483398" height="179.71966271629628" data-palette-color="#ffffff"><path d="M8.6-28.9L8.6-28.9Q8.35-28.9 7.8-29 7.25-29.1 7.25-29.45L7.25-29.45Q7.25-29.65 7.7-29.88 8.15-30.1 8.72-30.5 9.3-30.9 9.75-31.58 10.2-32.25 10.2-33.3L10.2-33.3Q10.2-34.7 9.7-35.3L9.7-35.3Q9.6-35.45 9.45-35.6 9.3-35.75 9.35-35.85L9.35-35.85Q9.45-35.85 9.58-35.8 9.7-35.75 9.8-35.7L9.8-35.7Q10.8-35.15 11.33-34.25 11.85-33.35 11.85-32.55L11.85-32.55Q11.85-30.95 11.08-29.93 10.3-28.9 8.6-28.9ZM6.75-30.9L6.75-30.9Q6.5-30.85 6.33-30.9 6.15-30.95 6.15-31.25L6.15-31.25Q6.15-31.65 6.45-32.02 6.75-32.4 7.03-32.85 7.3-33.3 7.4-33.88 7.5-34.45 7.1-35.3L7.1-35.3Q7-35.5 6.75-35.8 6.5-36.1 6.6-36.2L6.6-36.2Q6.7-36.25 7.03-36.13 7.35-36 7.45-35.9L7.45-35.9Q8.3-35.5 8.72-34.75 9.15-34 9.15-33.3L9.15-33.3Q9.15-32.35 8.38-31.75 7.6-31.15 6.75-30.9ZM5.3-33.65L5.3-33.65Q5.3-33.85 5.48-34.2 5.65-34.55 5.95-34.55L5.95-34.55Q6.2-34.55 6.35-34.2 6.5-33.85 6.5-33.65L6.5-33.65Q6.5-33.45 6.35-33.1 6.2-32.75 5.95-32.75L5.95-32.75Q5.65-32.75 5.48-33.1 5.3-33.45 5.3-33.65ZM8.35-17L8.35-17Q8.25-17.7 8.03-19 7.8-20.3 7.35-21.35L7.35-21.35Q7.25-21.6 7.05-21.95 6.85-22.3 6.75-22.25L6.75-22.25Q6.65-22.2 6.65-21.9 6.65-21.6 6.75-20.85L6.75-20.85Q6.95-19.65 6.93-17.93 6.9-16.2 6.68-14.15 6.45-12.1 5.95-9.8 5.45-7.5 4.7-5.2L4.7-5.2Q4.5-4.6 4.15-3.78 3.8-2.95 3.4-2.02 3-1.1 2.63-0.18 2.25 0.75 2.05 1.55L2.05 1.55Q1.85 2.8 2.6 1.8L2.6 1.8Q3.95 0.3 5.1-1.9 6.25-4.1 7.08-6.6 7.9-9.1 8.25-11.8 8.6-14.5 8.35-17ZM9.75-16L9.75-16Q9.65-16.35 9.6-16.43 9.55-16.5 9.45-16.5L9.45-16.5Q9.35-16.5 9.35-16.1L9.35-16.1Q9.35-12.65 8.7-9.5 8.05-6.35 6.9-3.35L6.9-3.35Q6.7-2.8 6.1-1.45 5.5-0.1 4.67 1.63 3.85 3.35 2.95 5.23 2.05 7.1 1.3 8.7 0.55 10.3 0.08 11.4-0.4 12.5-0.4 12.6L-0.4 12.6Q-0.4 12.8-0.3 12.78-0.2 12.75-0.1 12.65 0 12.55 0.1 12.4 0.2 12.25 0.25 12.2L0.25 12.2Q2 10.1 3.9 6.9 5.8 3.7 7.28 0.08 8.75-3.55 9.6-7.28 10.45-11 10.1-14.1L10.1-14.1Q10-15.1 9.75-16ZM-0.8-0.25L-0.8-0.25Q-1.5 1.55-2.2 3.28-2.9 5-3.4 6.83-3.9 8.65-4.1 10.65-4.3 12.65-4.05 14.95L-4.05 14.95Q-4.05 15.2-3.98 15.55-3.9 15.9-3.83 16.25-3.75 16.6-3.65 16.88-3.55 17.15-3.5 17.2L-3.5 17.2Q-3.4 17.2-3.4 16.75L-3.4 16.75Q-3.35 14.4-3.05 12.3-2.75 10.2-2.23 8.25-1.7 6.3-0.98 4.42-0.25 2.55 0.6 0.6L0.6 0.6Q1.6-1.5 2.7-3.98 3.8-6.45 4.65-9.13 5.5-11.8 5.95-14.6 6.4-17.4 6.1-20.25L6.1-20.25Q6-20.8 5.88-21.53 5.75-22.25 5.5-23L5.5-23Q5.25-23.8 5.1-23.8L5.1-23.8Q5-23.8 5.05-23L5.05-23Q5.35-20 4.8-16.95 4.25-13.9 3.3-10.95 2.35-8 1.23-5.28 0.1-2.55-0.8-0.25ZM-0.2 7.65L-0.2 7.65Q-0.2 7.5-0.35 7.45L-0.35 7.45Q-0.7 7.4-1.1 8.15-1.5 8.9-1.88 10.05-2.25 11.2-2.48 12.6-2.7 14-2.7 15.25L-2.7 15.25Q-2.7 15.65-2.58 16.38-2.45 17.1-2.35 17.5L-2.35 17.5Q-2.35 17.6-2.27 17.88-2.2 18.15-2.1 18.15L-2.1 18.15Q-1.95 18.2-1.93 18-1.9 17.8-1.9 17.7L-1.9 17.7Q-1.8 16.55-1.7 15.48-1.6 14.4-1.35 13.35L-1.35 13.35Q-1.25 12.95-1.05 12.13-0.85 11.3-0.65 10.43-0.45 9.55-0.3 8.78-0.15 8-0.2 7.65ZM20.1-16.5L20.1-16.5Q20.25-17.15 20.27-18 20.3-18.85 20.15-19.75 20-20.65 19.62-21.48 19.25-22.3 18.65-22.9L18.65-22.9Q18.35-23.1 18.3-23.1L18.3-23.1Q18.1-23.1 18.3-22.8L18.3-22.8Q18.6-22.15 18.52-20.78 18.45-19.4 18.2-17.93 17.95-16.45 17.67-15.28 17.4-14.1 17.35-13.85L17.35-13.85Q17-12.95 16.72-11.6 16.45-10.25 16.45-9.4L16.45-9.4Q16.4-9.3 16.4-9 16.4-8.7 16.55-8.65L16.55-8.65Q16.6-8.65 16.75-8.9 16.9-9.15 17-9.25L17-9.25Q17.9-10.85 18.72-12.75 19.55-14.65 20.1-16.5ZM20.3-8.95L20.3-8.95Q20.5-9.85 20.95-11.28 21.4-12.7 21.7-14.23 22-15.75 22-17.23 22-18.7 21.4-19.65L21.4-19.65Q21.2-19.85 21.1-19.85L21.1-19.85Q21-19.85 21.05-19.65L21.05-19.65Q21.05-17.75 20.62-16.13 20.2-14.5 19.7-12.95L19.7-12.95Q18.85-10.4 18.15-7.98 17.45-5.55 17.55-3L17.55-3Q17.55-2.85 17.57-2.68 17.6-2.5 17.75-2.5L17.75-2.5Q17.85-2.5 17.9-2.6 17.95-2.7 18.05-2.9L18.05-2.9Q18.55-4.1 19.2-5.73 19.85-7.35 20.3-8.95ZM16.75 0L16.75 0Q15.8-1 15.3-2.23 14.8-3.45 14.6-4.73 14.4-6 14.5-7.3 14.6-8.6 14.9-9.75L14.9-9.75Q15.35-11.55 16.05-13.35 16.75-15.15 17.25-16.93 17.75-18.7 17.82-20.43 17.9-22.15 17.1-23.8L17.1-23.8Q16.95-24.05 16.9-24.05L16.9-24.05Q16.85-24.05 16.85-23.98 16.85-23.9 16.9-23.85L16.9-23.85Q17.05-22.35 16.7-20.75 16.35-19.15 15.8-17.48 15.25-15.8 14.57-14.03 13.9-12.25 13.45-10.4L13.45-10.4Q13.1-9.05 12.97-7.65 12.85-6.25 13.15-4.88 13.45-3.5 14.25-2.25 15.05-1 16.55 0.05L16.55 0.05Q16.65 0.15 16.8 0.18 16.95 0.2 16.75 0ZM17.15-1.9L17.15-1.9Q17-2.3 16.82-2.9 16.65-3.5 16.55-4.05L16.55-4.05Q16.45-4.25 16.3-4.8 16.15-5.35 16.05-5.35L16.05-5.35Q15.85-5.35 15.77-5 15.7-4.65 15.7-4.13 15.7-3.6 15.77-3.03 15.85-2.45 16-2.05L16-2.05Q16.3-1.05 16.72-0.65 17.15-0.25 17.85 0L17.85 0Q18.15 0.15 18.3 0.15L18.3 0.15Q18.35 0.15 18.32 0.08 18.3 0 18.25 0L18.25 0Q17.9-0.4 17.62-0.85 17.35-1.3 17.15-1.9ZM21.05-27.75L21.05-27.75Q20.8-27.75 20.27-27.83 19.75-27.9 19.75-28.3L19.75-28.3Q19.75-28.45 20.2-28.68 20.65-28.9 21.2-29.33 21.75-29.75 22.2-30.43 22.65-31.1 22.65-32.15L22.65-32.15Q22.65-33.45 22.15-34.1L22.15-34.1Q22.05-34.25 21.9-34.43 21.75-34.6 21.8-34.65L21.8-34.65Q21.9-34.65 22.02-34.58 22.15-34.5 22.2-34.45L22.2-34.45Q23.2-33.9 23.72-33.02 24.25-32.15 24.25-31.35L24.25-31.35Q24.25-29.75 23.5-28.75 22.75-27.75 21.05-27.75ZM19.2-29.75L19.2-29.75Q18.6-29.5 18.6-30.05L18.6-30.05Q18.6-30.45 18.9-30.83 19.2-31.2 19.47-31.65 19.75-32.1 19.85-32.68 19.95-33.25 19.55-34.1L19.55-34.1Q19.45-34.35 19.2-34.65 18.95-34.95 19.05-35L19.05-35Q19.15-35.05 19.47-34.93 19.8-34.8 19.9-34.75L19.9-34.75Q20.75-34.35 21.17-33.55 21.6-32.75 21.6-32.15L21.6-32.15Q21.6-31.2 20.82-30.58 20.05-29.95 19.2-29.75ZM17.75-32.45L17.75-32.45Q17.75-32.7 17.9-33.02 18.05-33.35 18.4-33.35L18.4-33.35Q18.65-33.35 18.8-33.02 18.95-32.7 18.95-32.45L18.95-32.45Q18.95-32.25 18.8-31.93 18.65-31.6 18.4-31.6L18.4-31.6Q18.05-31.6 17.9-31.9 17.75-32.2 17.75-32.45ZM42.35-17.6L42.35-17.6Q41.95-15.6 41-13.6 40.05-11.6 39.2-9.85L39.2-9.85Q39.15-9.75 38.97-9.5 38.8-9.25 38.7-9.25L38.7-9.25Q38.55-9.3 38.55-9.58 38.55-9.85 38.55-9.95L38.55-9.95Q38.6-10.4 38.72-11.03 38.85-11.65 38.95-12.33 39.05-13 39.17-13.63 39.3-14.25 39.45-14.75L39.45-14.75Q39.9-16.45 40.2-17.68 40.5-18.9 40.65-19.9 40.8-20.9 40.82-21.8 40.85-22.7 40.7-23.75L40.7-23.75Q40.65-24.15 40.75-24.25L40.75-24.25Q40.85-24.3 41-24.15 41.15-24 41.25-23.85L41.25-23.85Q42.1-22.5 42.4-20.88 42.7-19.25 42.35-17.6ZM43.35-21.25L43.55-20.95Q44.2-20 44.2-18.45 44.2-16.9 43.9-15.28 43.6-13.65 43.15-12.15 42.7-10.65 42.5-9.75L42.5-9.75Q42.1-8 41.4-6.25 40.7-4.5 40.2-3.15L40.2-3.15Q40.15-3 40.05-2.83 39.95-2.65 39.85-2.65L39.85-2.65Q39.75-2.65 39.75-2.85 39.75-3.05 39.75-3.2L39.75-3.2Q39.6-5.95 40.35-8.58 41.1-11.2 41.95-13.9L41.95-13.9Q42.45-15.55 42.9-17.28 43.35-19 43.3-21.05L43.3-21.05Q43.3-21.25 43.35-21.25L43.35-21.25ZM38.85-21.8L38.85-21.8Q35.8-20.55 33.67-18.23 31.55-15.9 30.4-13L30.4-13Q29.9-11.7 29.65-10.68 29.4-9.65 29.25-8.45L29.25-8.45Q29.2-8.2 29.4-7.95 29.6-7.7 29.8-7.95L29.8-7.95Q30.7-9.05 32.1-10.75 33.5-12.45 34.9-14.35 36.3-16.25 37.42-18.2 38.55-20.15 38.85-21.8ZM35.5-4.85L35.5-4.85Q34.75-3.8 34.05-2.9 33.35-2 32.5-1.33 31.65-0.65 30.6-0.25 29.55 0.15 28.2 0.2L28.2 0.2Q25.95 0.3 24.77-0.95 23.6-2.2 23.15-4 22.7-5.8 22.82-7.73 22.95-9.65 23.35-10.9L23.35-10.9Q23.9-12.65 24.67-14.23 25.45-15.8 26.32-17.07 27.2-18.35 28.12-19.28 29.05-20.2 29.95-20.7L29.95-20.7Q30-20.7 30.17-20.8 30.35-20.9 30.35-20.75L30.35-20.75Q30.4-20.75 30.3-20.6 30.2-20.45 30.1-20.35L30.1-20.35Q27.5-17.65 25.97-14.25 24.45-10.85 24.25-7.25L24.25-7.25Q24.2-6.35 24.32-5.3 24.45-4.25 24.82-3.33 25.2-2.4 25.9-1.78 26.6-1.15 27.8-1.15L27.8-1.15Q28.75-1.15 29.55-1.48 30.35-1.8 31.05-2.33 31.75-2.85 32.32-3.48 32.9-4.1 33.35-4.65L33.35-4.65Q34.35-5.9 35.2-7.25L35.2-7.25Q35.2-8.25 35.32-9.2 35.45-10.15 35.7-11.1L35.7-11.1Q35.85-11.8 35.97-12.23 36.1-12.65 36.22-13.03 36.35-13.4 36.47-13.83 36.6-14.25 36.85-14.95L36.85-14.95Q36.05-13.55 35.27-12.33 34.5-11.1 33.62-9.98 32.75-8.85 31.82-7.78 30.9-6.7 29.8-5.6L29.8-5.6Q28.95-4.75 28.4-5.05 27.85-5.35 27.75-6.45L27.75-6.45Q27.65-8.15 27.92-9.75 28.2-11.35 28.9-13.1L28.9-13.1Q29.55-14.7 30.52-16.2 31.5-17.7 32.77-18.93 34.05-20.15 35.6-21.03 37.15-21.9 38.9-22.2L38.9-22.2Q39-22.75 39.07-23.15 39.15-23.55 39.2-23.95L39.2-23.95Q39.3-24.5 39.3-24.5L39.3-24.5Q39.4-24.55 39.52-24.4 39.65-24.25 39.75-24L39.75-24Q40.35-22.35 40.15-20.7 39.95-19.05 39.42-17.35 38.9-15.65 38.2-13.88 37.5-12.1 37.05-10.3L37.05-10.3Q36.45-7.75 36.72-5.03 37-2.3 38.85-0.1L38.85-0.1Q39 0.1 39 0.1L39 0.1Q38.95 0.15 38.7 0L38.7 0Q37.25-0.9 36.52-2.18 35.8-3.45 35.5-4.85ZM37.25-22.55L37.25-22.55Q37.35-22.45 37.22-22.4 37.1-22.35 36.7-22.25L36.7-22.25Q36.05-22.05 35.12-21.5 34.2-20.95 33.17-20.1 32.15-19.25 31.15-18.13 30.15-17 29.4-15.7L29.4-15.7Q28.65-14.35 28.12-13.05 27.6-11.75 27.27-10.68 26.95-9.6 26.8-8.83 26.65-8.05 26.65-7.75L26.65-7.75Q26.65-7 26.65-6.18 26.65-5.35 26.85-4.7 27.05-4.05 27.55-3.7 28.05-3.35 29.05-3.5L29.05-3.5Q29.1-3.5 29.3-3.58 29.5-3.65 29.7-3.73 29.9-3.8 30.07-3.85 30.25-3.9 30.3-3.9L30.3-3.9Q30.35-3.8 30.22-3.65 30.1-3.5 29.9-3.33 29.7-3.15 29.52-3 29.35-2.85 29.3-2.8L29.3-2.8Q28.05-2.05 27.2-2.35 26.35-2.65 25.87-3.48 25.4-4.3 25.22-5.43 25.05-6.55 25.1-7.45L25.1-7.45Q25.2-9.2 25.65-10.93 26.1-12.65 26.8-14.4L26.8-14.4Q27.35-15.75 28.45-17.18 29.55-18.6 30.92-19.8 32.3-21 33.8-21.78 35.3-22.55 36.7-22.6L36.7-22.6Q37.2-22.6 37.25-22.55ZM40.2-0.1L40.2-0.1Q40.3 0.05 40.25 0.1L40.25 0.1Q40.1 0.1 39.85 0L39.85 0Q39.7-0.1 39.05-0.6 38.4-1.1 38.1-2.2L38.1-2.2Q38-2.6 37.92-3.23 37.85-3.85 37.85-4.4 37.85-4.95 37.92-5.35 38-5.75 38.15-5.75L38.15-5.75Q38.3-5.75 38.47-5.15 38.65-4.55 38.7-4.4L38.7-4.4Q38.85-3.7 38.97-3.18 39.1-2.65 39.25-2.2L39.25-2.2Q39.45-1.65 39.77-0.95 40.1-0.25 40.2-0.1ZM60.89-13.85L60.89-13.85Q61.04-15.2 60.94-16.7 60.84-18.2 60.32-19.48 59.79-20.75 58.72-21.6 57.64-22.45 55.89-22.45L55.89-22.45Q53.54-22.45 51.79-21.18 50.04-19.9 48.79-18.03 47.54-16.15 46.84-14.03 46.14-11.9 45.94-10.15L45.94-10.15Q45.64-7.75 45.87-6 46.09-4.25 46.69-3.13 47.29-2 48.22-1.45 49.14-0.9 50.24-0.9L50.24-0.9Q51.79-0.85 53.52-1.78 55.24-2.7 56.74-4.38 58.24-6.05 59.37-8.47 60.49-10.9 60.89-13.85ZM44.79-10.4L44.79-10.4Q44.99-12.4 45.79-14.8 46.59-17.2 48.02-19.25 49.44-21.3 51.44-22.68 53.44-24.05 56.09-24.05L56.09-24.05Q58.09-24.05 59.39-23.1 60.69-22.15 61.39-20.68 62.09-19.2 62.29-17.48 62.49-15.75 62.29-14.2L62.29-14.2Q61.84-10.6 60.54-7.95 59.24-5.3 57.49-3.53 55.74-1.75 53.79-0.88 51.84 0 50.04 0L50.04 0Q48.69 0 47.62-0.6 46.54-1.2 45.82-2.48 45.09-3.75 44.82-5.73 44.54-7.7 44.79-10.4ZM50.39-3.35L50.39-3.35Q50.14-3.35 49.89-3.53 49.64-3.7 49.49-3.95 49.34-4.2 49.29-4.45 49.24-4.7 49.49-4.8L49.49-4.8Q49.64-4.85 49.89-4.45 50.14-4.05 50.44-4.05L50.44-4.05Q50.94-4.05 51.62-4.7 52.29-5.35 52.92-6.23 53.54-7.1 54.02-7.95 54.49-8.8 54.69-9.2L54.69-9.2Q54.89-9.6 55.09-10.23 55.29-10.85 55.47-11.5 55.64-12.15 55.77-12.78 55.89-13.4 55.94-13.85L55.94-13.85Q56.19-16.1 55.84-17.32 55.49-18.55 54.69-18.55L54.69-18.55Q54.09-18.55 53.44-18.18 52.79-17.8 52.22-17.2 51.64-16.6 51.19-15.88 50.74-15.15 50.54-14.4L50.54-14.4Q50.29-13.55 50.19-13.55L50.19-13.55Q50.04-13.55 50.04-14.4L50.04-14.4Q50.19-15.35 50.69-16.28 51.19-17.2 51.94-17.93 52.69-18.65 53.59-19.13 54.49-19.6 55.44-19.6L55.44-19.6Q56.39-19.6 56.87-18.93 57.34-18.25 57.54-17.28 57.74-16.3 57.72-15.28 57.69-14.25 57.59-13.65L57.59-13.65Q57.39-12.3 56.97-11.03 56.54-9.75 55.94-8.45L55.94-8.45Q55.64-7.85 55.04-6.98 54.44-6.1 53.67-5.3 52.89-4.5 52.02-3.93 51.14-3.35 50.39-3.35ZM51.99-2.4L51.99-2.4Q52.04-2.1 51.52-1.9 50.99-1.7 50.44-1.7L50.44-1.7Q48.89-1.75 48.07-2.7 47.24-3.65 46.92-4.95 46.59-6.25 46.62-7.65 46.64-9.05 46.74-10L46.74-10Q46.94-11.65 47.54-13.7 48.14-15.75 49.24-17.55 50.34-19.35 51.94-20.58 53.54-21.8 55.74-21.8L55.74-21.8Q57.19-21.8 58.07-21.05 58.94-20.3 59.37-19.2 59.79-18.1 59.87-16.82 59.94-15.55 59.79-14.5L59.79-14.5Q59.69-13.35 59.44-12.4 59.19-11.45 58.74-10.3L58.74-10.3Q58.59-9.95 58.34-9.5 58.09-9.05 57.79-9.1L57.79-9.1Q57.64-9.15 57.72-9.5 57.79-9.85 57.92-10.38 58.04-10.9 58.19-11.48 58.34-12.05 58.39-12.55L58.39-12.55Q58.49-13.4 58.52-14.68 58.54-15.95 58.32-17.15 58.09-18.35 57.49-19.2 56.89-20.05 55.69-20.05L55.69-20.05Q53.94-20.05 52.47-18.93 50.99-17.8 49.89-16.18 48.79-14.55 48.12-12.78 47.44-11 47.29-9.65L47.29-9.65Q47.19-8.85 47.24-7.65 47.29-6.45 47.62-5.28 47.94-4.1 48.69-3.25 49.44-2.4 50.74-2.35L50.74-2.35Q51.14-2.3 51.52-2.43 51.89-2.55 51.99-2.4ZM72.49-26.05L72.49-26.05Q72.79-27.15 72.89-28.73 72.99-30.3 72.89-31.88 72.79-33.45 72.42-34.85 72.04-36.25 71.29-37L71.29-37Q70.99-37.3 70.82-37.2 70.64-37.1 70.89-36.7L70.89-36.7Q71.39-35.8 71.37-33.93 71.34-32.05 71.04-29.85 70.74-27.65 70.24-25.45 69.74-23.25 69.24-21.6L69.24-21.6Q68.99-20.9 68.74-19.85 68.49-18.8 68.22-17.73 67.94-16.65 67.74-15.63 67.54-14.6 67.44-13.9L67.44-13.9Q67.44-13.75 67.39-13.33 67.34-12.9 67.49-12.8L67.49-12.8Q67.59-12.8 67.79-13.23 67.99-13.65 68.04-13.75L68.04-13.75Q69.24-16.55 70.49-19.73 71.74-22.9 72.49-26.05ZM71.34-13.85L71.34-13.85Q71.59-14.75 72.04-16.2 72.49-17.65 72.94-19.38 73.39-21.1 73.82-22.98 74.24-24.85 74.47-26.63 74.69-28.4 74.62-29.9 74.54-31.4 74.09-32.35L74.09-32.35Q74.04-32.5 73.89-32.65 73.74-32.8 73.74-32.4L73.74-32.4Q73.84-29.2 73.09-26 72.34-22.8 71.49-20.2L71.49-20.2Q70.84-18.15 70.17-16.1 69.49-14.05 69.02-12.03 68.54-10 68.42-8.05 68.29-6.1 68.79-4.3L68.79-4.3Q68.99-3.65 69.14-3.65L69.14-3.65Q69.29-3.7 69.29-4.3L69.29-4.3Q69.29-5.2 69.47-6.33 69.64-7.45 69.94-8.7 70.24-9.95 70.59-11.28 70.94-12.6 71.34-13.85ZM70.39-0.15L70.39-0.15Q68.64-0.35 67.27-1.9 65.89-3.45 65.44-5.7L65.44-5.7Q64.99-7.85 65.22-10.08 65.44-12.3 65.99-14.25L65.99-14.25Q66.79-17.25 67.89-20.43 68.99-23.6 69.77-26.7 70.54-29.8 70.64-32.68 70.74-35.55 69.64-37.95L69.64-37.95Q69.54-38 69.49-38.18 69.44-38.35 69.34-38.3L69.34-38.3Q69.19-38.3 69.29-37.95L69.29-37.95Q69.69-35.65 69.34-32.98 68.99-30.3 68.22-27.43 67.44-24.55 66.47-21.5 65.49-18.45 64.64-15.4L64.64-15.4Q63.99-13.15 63.77-10.63 63.54-8.1 64.09-5.55L64.09-5.55Q64.39-4.25 65.02-3.2 65.64-2.15 66.49-1.43 67.34-0.7 68.34-0.3 69.34 0.1 70.39 0.05L70.39 0.05 70.54 0.05Q70.59 0.05 70.69 0L70.69 0Q70.69-0.15 70.39-0.15ZM68.89-2.65L68.89-2.65Q67.99-3.7 67.44-5.35L67.44-5.35Q67.39-5.5 67.29-5.83 67.19-6.15 67.09-6.48 66.99-6.8 66.89-7.08 66.79-7.35 66.74-7.35L66.74-7.35Q66.54-7.35 66.54-6.7 66.54-6.05 66.69-5.2 66.84-4.35 67.14-3.48 67.44-2.6 67.84-2.1L67.84-2.1Q68.64-1.2 69.47-1 70.29-0.8 71.14-0.8L71.14-0.8Q71.44-0.8 71.62-0.98 71.79-1.15 71.34-1.25L71.34-1.25Q69.89-1.4 68.89-2.65ZM82.89-26.05L82.89-26.05Q83.19-27.15 83.29-28.73 83.39-30.3 83.29-31.88 83.19-33.45 82.81-34.85 82.44-36.25 81.69-37L81.69-37Q81.39-37.3 81.21-37.2 81.04-37.1 81.29-36.7L81.29-36.7Q81.79-35.8 81.76-33.93 81.74-32.05 81.44-29.85 81.14-27.65 80.64-25.45 80.14-23.25 79.64-21.6L79.64-21.6Q79.39-20.9 79.14-19.85 78.89-18.8 78.61-17.73 78.34-16.65 78.14-15.63 77.94-14.6 77.84-13.9L77.84-13.9Q77.84-13.75 77.79-13.33 77.74-12.9 77.89-12.8L77.89-12.8Q77.99-12.8 78.19-13.23 78.39-13.65 78.44-13.75L78.44-13.75Q79.64-16.55 80.89-19.73 82.14-22.9 82.89-26.05ZM81.74-13.85L81.74-13.85Q81.99-14.75 82.44-16.2 82.89-17.65 83.34-19.38 83.79-21.1 84.21-22.98 84.64-24.85 84.86-26.63 85.09-28.4 85.01-29.9 84.94-31.4 84.49-32.35L84.49-32.35Q84.44-32.5 84.29-32.65 84.14-32.8 84.14-32.4L84.14-32.4Q84.24-29.2 83.49-26 82.74-22.8 81.89-20.2L81.89-20.2Q81.24-18.15 80.56-16.1 79.89-14.05 79.41-12.03 78.94-10 78.81-8.05 78.69-6.1 79.19-4.3L79.19-4.3Q79.39-3.65 79.54-3.65L79.54-3.65Q79.69-3.7 79.69-4.3L79.69-4.3Q79.69-5.2 79.86-6.33 80.04-7.45 80.34-8.7 80.64-9.95 80.99-11.28 81.34-12.6 81.74-13.85ZM80.79-0.15L80.79-0.15Q79.04-0.35 77.66-1.9 76.29-3.45 75.84-5.7L75.84-5.7Q75.39-7.85 75.61-10.08 75.84-12.3 76.39-14.25L76.39-14.25Q77.19-17.25 78.29-20.43 79.39-23.6 80.16-26.7 80.94-29.8 81.04-32.68 81.14-35.55 80.04-37.95L80.04-37.95Q79.94-38 79.89-38.18 79.84-38.35 79.74-38.3L79.74-38.3Q79.59-38.3 79.69-37.95L79.69-37.95Q80.09-35.65 79.74-32.98 79.39-30.3 78.61-27.43 77.84-24.55 76.86-21.5 75.89-18.45 75.04-15.4L75.04-15.4Q74.39-13.15 74.16-10.63 73.94-8.1 74.49-5.55L74.49-5.55Q74.79-4.25 75.41-3.2 76.04-2.15 76.89-1.43 77.74-0.7 78.74-0.3 79.74 0.1 80.79 0.05L80.79 0.05 80.94 0.05Q80.99 0.05 81.09 0L81.09 0Q81.09-0.15 80.79-0.15ZM79.29-2.65L79.29-2.65Q78.39-3.7 77.84-5.35L77.84-5.35Q77.79-5.5 77.69-5.83 77.59-6.15 77.49-6.48 77.39-6.8 77.29-7.08 77.19-7.35 77.14-7.35L77.14-7.35Q76.94-7.35 76.94-6.7 76.94-6.05 77.09-5.2 77.24-4.35 77.54-3.48 77.84-2.6 78.24-2.1L78.24-2.1Q79.04-1.2 79.86-1 80.69-0.8 81.54-0.8L81.54-0.8Q81.84-0.8 82.01-0.98 82.19-1.15 81.74-1.25L81.74-1.25Q80.29-1.4 79.29-2.65Z" opacity="1" transform="matrix(1,0,0,1,0,0)" fill="#ffffff" class="wordmark-text-0" data-fill-palette-color="quaternary" id="text-0"></path></svg></g></svg></g></svg></g></svg></g><g></g></svg></g><defs></defs></svg><rect width="395.52" height="232.1809960496296" fill="none" stroke="none" visibility="hidden"></rect></g></svg></g></svg>